<svg xmlns="http://www.w3.org/2000/svg" version="1.1" xmlns:xlink="http://www.w3.org/1999/xlink" xmlns:svgjs="http://svgjs.dev/svgjs" width="1500" height="784" viewBox="0 0 1500 784"><g transform="matrix(1,0,0,1,-0.9090909090909918,0.4460766142571515)"><svg viewBox="0 0 396 207" data-background-color="#ffffff" preserveAspectRatio="xMidYMid meet" height="784" width="1500" xmlns="http://www.w3.org/2000/svg" xmlns:xlink="http://www.w3.org/1999/xlink"><g id="tight-bounds" transform="matrix(1,0,0,1,0.2400000000000091,-0.11777788157044711)"><svg viewBox="0 0 395.52 207.2355557631409" height="207.2355557631409" width="395.52"><g><svg viewBox="0 0 395.52 207.2355557631409" height="207.2355557631409" width="395.52"><g transform="matrix(1,0,0,1,0,154.51695464139888)"><svg viewBox="0 0 395.52 52.718601121742" height="52.718601121742" width="395.52"><g id="textblocktransform"><svg viewBox="0 0 395.52 52.718601121742" height="52.718601121742" width="395.52" id="textblock"><g><svg viewBox="0 0 395.52 52.718601121742" height="52.718601121742" width="395.52"><g transform="matrix(1,0,0,1,0,0)"><svg width="395.52" viewBox="1.1 -39.65 303.07 40.4" height="52.718601121742" data-palette-color="#0c0a4b"><path d="M14-34.55Q19.75-34.55 23.1-31.88 26.45-29.2 26.45-22.65L26.45-22.65Q26.45-12.55 22.33-6.28 18.2 0 9.4 0L9.4 0 1.1 0 6-34.55 14-34.55ZM14.2-29.8L11.6-29.8 8.05-4.75 10.5-4.75Q13.95-4.75 16.1-7.45 18.25-10.15 19.18-14.25 20.1-18.35 20.1-22.75L20.1-22.75Q20.1-26.65 18.6-28.23 17.1-29.8 14.2-29.8L14.2-29.8ZM37.5 0.75Q33.35 0.75 31.05-1.93 28.75-4.6 28.75-9.4L28.75-9.4Q28.75-13.8 30.12-17.85 31.5-21.9 34.37-24.53 37.25-27.15 41.5-27.15L41.5-27.15Q45.65-27.15 47.92-24.53 50.2-21.9 50.2-17.05L50.2-17.05Q50.2-12.7 48.85-8.63 47.5-4.55 44.62-1.9 41.75 0.75 37.5 0.75L37.5 0.75ZM37.9-3.95Q40.1-3.95 41.47-6.23 42.85-8.5 43.45-11.68 44.05-14.85 44.05-17.8L44.05-17.8Q44.05-22.5 41.1-22.5L41.1-22.5Q38.9-22.5 37.52-20.25 36.15-18 35.55-14.8 34.95-11.6 34.95-8.65L34.95-8.65Q34.95-3.95 37.9-3.95L37.9-3.95ZM65.75-27.15Q67.94-27.15 69.62-26.4 71.3-25.65 72.69-24.1L72.69-24.1 69.64-20.7Q68.64-21.55 67.8-21.95 66.94-22.35 65.84-22.35L65.84-22.35Q62.49-22.35 60.92-18.32 59.34-14.3 59.34-9.3L59.34-9.3Q59.34-6.6 60.2-5.4 61.05-4.2 62.64-4.2L62.64-4.2Q63.74-4.2 64.72-4.63 65.69-5.05 67.05-5.95L67.05-5.95 69.25-2.15Q65.64 0.75 61.74 0.75L61.74 0.75Q57.7 0.75 55.37-1.98 53.05-4.7 53.05-9.5L53.05-9.5Q53.05-14.05 54.49-18.07 55.95-22.1 58.8-24.63 61.64-27.15 65.75-27.15L65.75-27.15ZM85.64-34.55Q90.74-34.55 93.47-32.18 96.19-29.8 96.19-25.3L96.19-25.3Q96.19-21.7 94.74-18.73 93.29-15.75 90.29-13.95 87.29-12.15 82.84-12.15L82.84-12.15 80.49-12.15 78.79 0 72.49 0 77.39-34.55 85.64-34.55ZM82.94-16.9Q86.69-16.9 88.22-19.28 89.74-21.65 89.74-25.25L89.74-25.25Q89.74-27.75 88.62-28.8 87.49-29.85 85.04-29.85L85.04-29.85 82.99-29.85 81.19-16.9 82.94-16.9ZM111.29-27.1Q112.29-27.1 113.44-26.75L113.44-26.75 111.54-20.85Q110.64-21.1 109.79-21.1L109.79-21.1Q107.89-21.1 106.54-19.07 105.19-17.05 104.09-13.2L104.09-13.2 102.29 0 96.24 0 99.94-26.45 105.14-26.45 104.89-21.85Q106.14-24.45 107.67-25.78 109.19-27.1 111.29-27.1L111.29-27.1ZM121.74 0.75Q117.59 0.75 115.29-1.93 112.99-4.6 112.99-9.4L112.99-9.4Q112.99-13.8 114.36-17.85 115.74-21.9 118.61-24.53 121.49-27.15 125.74-27.15L125.74-27.15Q129.89-27.15 132.16-24.53 134.44-21.9 134.44-17.05L134.44-17.05Q134.44-12.7 133.09-8.63 131.74-4.55 128.86-1.9 125.99 0.75 121.74 0.75L121.74 0.75ZM122.14-3.95Q124.34-3.95 125.71-6.23 127.09-8.5 127.69-11.68 128.29-14.85 128.29-17.8L128.29-17.8Q128.29-22.5 125.34-22.5L125.34-22.5Q123.14-22.5 121.76-20.25 120.39-18 119.79-14.8 119.19-11.6 119.19-8.65L119.19-8.65Q119.19-3.95 122.14-3.95L122.14-3.95ZM152.39-27.15Q155.44-27.15 157.19-24.83 158.94-22.5 158.94-18.2L158.94-18.2Q158.94-13.05 157.61-8.78 156.29-4.5 153.26-1.88 150.24 0.75 145.49 0.75L145.49 0.75Q141.53 0.75 136.94-1.2L136.94-1.2 141.99-37.05 148.09-37.7 146.19-24.05Q147.49-25.55 149.06-26.35 150.64-27.15 152.39-27.15L152.39-27.15ZM150.19-22.5Q149.03-22.5 147.78-21.63 146.53-20.75 145.49-19.3L145.49-19.3 143.44-4.45Q144.84-3.9 146.24-3.9L146.24-3.9Q148.44-3.9 149.91-6.05 151.39-8.2 152.09-11.43 152.78-14.65 152.78-18L152.78-18Q152.78-20.45 152.14-21.48 151.49-22.5 150.19-22.5L150.19-22.5ZM174.68-27.15Q178.28-27.15 180.31-25.25 182.33-23.35 182.33-20.4L182.33-20.4Q182.33-15.3 178.36-12.93 174.38-10.55 167.78-9.75L167.78-9.75 167.78-9.05Q167.78-6.4 168.71-5.23 169.63-4.05 171.38-4.05L171.38-4.05Q172.83-4.05 174.11-4.6 175.38-5.15 177.03-6.35L177.03-6.35 179.23-2.65Q175.18 0.75 170.53 0.75L170.53 0.75Q166.38 0.75 164.03-1.83 161.68-4.4 161.68-9.15L161.68-9.15Q161.68-13.75 163.08-17.88 164.48-22 167.43-24.58 170.38-27.15 174.68-27.15L174.68-27.15ZM168.18-13.8Q172.38-14.3 174.38-15.9 176.38-17.5 176.38-20.25L176.38-20.25Q176.38-22.8 174.08-22.8L174.08-22.8Q171.68-22.8 170.23-20.23 168.78-17.65 168.18-13.8L168.18-13.8ZM214.98 0L208.48 0 207.98-8.1 199.48-8.1 196.78 0 190.28 0 203.63-34.55 211.28-34.55 214.98 0ZM206.68-29.9L201.03-12.9 207.68-12.9 206.68-29.9ZM228.43-27.15Q230.83-27.15 232.83-26.3 234.83-25.45 236.33-23.9L236.33-23.9 233.58-20.55Q231.23-22.6 228.63-22.6L228.63-22.6Q227.03-22.6 226.1-21.75 225.18-20.9 225.18-19.5L225.18-19.5Q225.18-18.3 226.05-17.5 226.93-16.7 229.23-15.65L229.23-15.65Q231.93-14.45 233.25-12.8 234.58-11.15 234.58-8.45L234.58-8.45Q234.58-5.7 233.25-3.63 231.93-1.55 229.6-0.4 227.28 0.75 224.43 0.75L224.43 0.75Q219.18 0.75 215.63-3.15L215.63-3.15 218.93-6.45Q220.23-5.2 221.53-4.53 222.83-3.85 224.43-3.85L224.43-3.85Q226.38-3.85 227.4-5 228.43-6.15 228.43-7.7L228.43-7.7Q228.43-9.2 227.58-10.08 226.73-10.95 224.43-11.95L224.43-11.95Q221.63-13.15 220.38-14.73 219.13-16.3 219.13-18.85L219.13-18.85Q219.13-21.1 220.33-23 221.53-24.9 223.65-26.03 225.78-27.15 228.43-27.15L228.43-27.15ZM248.27-27.15Q250.67-27.15 252.67-26.3 254.67-25.45 256.17-23.9L256.17-23.9 253.42-20.55Q251.07-22.6 248.47-22.6L248.47-22.6Q246.87-22.6 245.95-21.75 245.02-20.9 245.02-19.5L245.02-19.5Q245.02-18.3 245.9-17.5 246.77-16.7 249.07-15.65L249.07-15.65Q251.77-14.45 253.1-12.8 254.42-11.15 254.42-8.45L254.42-8.45Q254.42-5.7 253.1-3.63 251.77-1.55 249.45-0.4 247.12 0.75 244.27 0.75L244.27 0.75Q239.02 0.75 235.47-3.15L235.47-3.15 238.77-6.45Q240.07-5.2 241.37-4.53 242.67-3.85 244.27-3.85L244.27-3.85Q246.22-3.85 247.25-5 248.27-6.15 248.27-7.7L248.27-7.7Q248.27-9.2 247.42-10.08 246.57-10.95 244.27-11.95L244.27-11.95Q241.47-13.15 240.22-14.73 238.97-16.3 238.97-18.85L238.97-18.85Q238.97-21.1 240.17-23 241.37-24.9 243.5-26.03 245.62-27.15 248.27-27.15L248.27-27.15ZM261.07-26.45L267.12-26.45 263.42 0 257.37 0 261.07-26.45ZM264.87-32.2Q263.32-32.2 262.44-33.08 261.57-33.95 261.57-35.45L261.57-35.45Q261.57-37.35 262.75-38.5 263.92-39.65 265.67-39.65L265.67-39.65Q267.22-39.65 268.1-38.78 268.97-37.9 268.97-36.4L268.97-36.4Q268.97-34.55 267.77-33.38 266.57-32.2 264.87-32.2L264.87-32.2ZM279.77-27.15Q282.17-27.15 284.17-26.3 286.17-25.45 287.67-23.9L287.67-23.9 284.92-20.55Q282.57-22.6 279.97-22.6L279.97-22.6Q278.37-22.6 277.44-21.75 276.52-20.9 276.52-19.5L276.52-19.5Q276.52-18.3 277.39-17.5 278.27-16.7 280.57-15.65L280.57-15.65Q283.27-14.45 284.59-12.8 285.92-11.15 285.92-8.45L285.92-8.45Q285.92-5.7 284.59-3.63 283.27-1.55 280.94-0.4 278.62 0.75 275.77 0.75L275.77 0.75Q270.52 0.75 266.97-3.15L266.97-3.15 270.27-6.45Q271.57-5.2 272.87-4.53 274.17-3.85 275.77-3.85L275.77-3.85Q277.72-3.85 278.74-5 279.77-6.15 279.77-7.7L279.77-7.7Q279.77-9.2 278.92-10.08 278.07-10.95 275.77-11.95L275.77-11.95Q272.97-13.15 271.72-14.73 270.47-16.3 270.47-18.85L270.47-18.85Q270.47-21.1 271.67-23 272.87-24.9 274.99-26.03 277.12-27.15 279.77-27.15L279.77-27.15ZM298.62-22L296.47-6.8Q296.42-6.55 296.42-6.1L296.42-6.1Q296.42-4.2 298.17-4.2L298.17-4.2Q298.77-4.2 299.31-4.4 299.87-4.6 300.72-5.05L300.72-5.05 302.22-1.1Q299.62 0.75 296.47 0.75L296.47 0.75Q293.56 0.75 291.97-0.9 290.37-2.55 290.37-5.45L290.37-5.45Q290.37-5.9 290.47-7L290.47-7 292.56-22 289.37-22 290.02-26.45 293.42-26.45 294.92-32.45 300.17-33.05 299.22-26.45 304.17-26.45 302.81-22 298.62-22Z" opacity="1" transform="matrix(1,0,0,1,0,0)" fill="#0c0a4b" class="wordmark-text-0" data-fill-palette-color="primary" id="text-0"></path></svg></g></svg></g></svg></g></svg></g><g transform="matrix(1,0,0,1,131.28486798912854,0)"><svg viewBox="0 0 132.9502640217429 142.0713581629825" height="142.0713581629825" width="132.9502640217429"><g><svg xmlns="http://www.w3.org/2000/svg" xmlns:xlink="http://www.w3.org/1999/xlink" version="1.1" x="8" y="0" viewBox="12.956 5 74.08699999999999 90.001" enable-background="new 0 0 100 100" xml:space="preserve" width="116.9502640217429" height="142.0713581629825" class="icon-icon-0" data-fill-palette-color="accent" id="icon-0"></svg></g></svg></g><g></g></svg></g><defs></defs><mask id="715f4758-e542-40e9-85f8-94caa918aa5f"><g id="SvgjsG1174"><svg viewBox="0 0 395.52 207.2355557631409" height="207.2355557631409" width="395.52"><g><svg viewBox="0 0 395.52 207.2355557631409" height="207.2355557631409" width="395.52"><g transform="matrix(1,0,0,1,0,154.51695464139888)"><svg viewBox="0 0 395.52 52.718601121742" height="52.718601121742" width="395.52"><g id="SvgjsG1173"><svg viewBox="0 0 395.52 52.718601121742" height="52.718601121742" width="395.52" id="SvgjsSvg1172"><g><svg viewBox="0 0 395.52 52.718601121742" height="52.718601121742" width="395.52"><g transform="matrix(1,0,0,1,0,0)"><svg width="395.52" viewBox="1.1 -39.65 303.07 40.4" height="52.718601121742" data-palette-color="#0c0a4b"><path d="M14-34.55Q19.75-34.55 23.1-31.88 26.45-29.2 26.45-22.65L26.45-22.65Q26.45-12.55 22.33-6.28 18.2 0 9.4 0L9.4 0 1.1 0 6-34.55 14-34.55ZM14.2-29.8L11.6-29.8 8.05-4.75 10.5-4.75Q13.95-4.75 16.1-7.45 18.25-10.15 19.18-14.25 20.1-18.35 20.1-22.75L20.1-22.75Q20.1-26.65 18.6-28.23 17.1-29.8 14.2-29.8L14.2-29.8ZM37.5 0.75Q33.35 0.75 31.05-1.93 28.75-4.6 28.75-9.4L28.75-9.4Q28.75-13.8 30.12-17.85 31.5-21.9 34.37-24.53 37.25-27.15 41.5-27.15L41.5-27.15Q45.65-27.15 47.92-24.53 50.2-21.9 50.2-17.05L50.2-17.05Q50.2-12.7 48.85-8.63 47.5-4.55 44.62-1.9 41.75 0.75 37.5 0.75L37.5 0.75ZM37.9-3.95Q40.1-3.95 41.47-6.23 42.85-8.5 43.45-11.68 44.05-14.85 44.05-17.8L44.05-17.8Q44.05-22.5 41.1-22.5L41.1-22.5Q38.9-22.5 37.52-20.25 36.15-18 35.55-14.8 34.95-11.6 34.95-8.65L34.95-8.65Q34.95-3.95 37.9-3.95L37.9-3.95ZM65.75-27.15Q67.94-27.15 69.62-26.4 71.3-25.65 72.69-24.1L72.69-24.1 69.64-20.7Q68.64-21.55 67.8-21.95 66.94-22.35 65.84-22.35L65.84-22.35Q62.49-22.35 60.92-18.32 59.34-14.3 59.34-9.3L59.34-9.3Q59.34-6.6 60.2-5.4 61.05-4.2 62.64-4.2L62.64-4.2Q63.74-4.2 64.72-4.63 65.69-5.05 67.05-5.95L67.05-5.95 69.25-2.15Q65.64 0.75 61.74 0.75L61.74 0.75Q57.7 0.75 55.37-1.98 53.05-4.7 53.05-9.5L53.05-9.5Q53.05-14.05 54.49-18.07 55.95-22.1 58.8-24.63 61.64-27.15 65.75-27.15L65.75-27.15ZM85.64-34.55Q90.74-34.55 93.47-32.18 96.19-29.8 96.19-25.3L96.19-25.3Q96.19-21.7 94.74-18.73 93.29-15.75 90.29-13.95 87.29-12.15 82.84-12.15L82.84-12.15 80.49-12.15 78.79 0 72.49 0 77.39-34.55 85.64-34.55ZM82.94-16.9Q86.69-16.9 88.22-19.28 89.74-21.65 89.74-25.25L89.74-25.25Q89.74-27.75 88.62-28.8 87.49-29.85 85.04-29.85L85.04-29.85 82.99-29.85 81.19-16.9 82.94-16.9ZM111.29-27.1Q112.29-27.1 113.44-26.75L113.44-26.75 111.54-20.85Q110.64-21.1 109.79-21.1L109.79-21.1Q107.89-21.1 106.54-19.07 105.19-17.05 104.09-13.2L104.09-13.2 102.29 0 96.24 0 99.94-26.45 105.14-26.45 104.89-21.85Q106.14-24.45 107.67-25.78 109.19-27.1 111.29-27.1L111.29-27.1ZM121.74 0.75Q117.59 0.75 115.29-1.93 112.99-4.6 112.99-9.4L112.99-9.4Q112.99-13.8 114.36-17.85 115.74-21.9 118.61-24.53 121.49-27.15 125.74-27.15L125.74-27.15Q129.89-27.15 132.16-24.53 134.44-21.9 134.44-17.05L134.44-17.05Q134.44-12.7 133.09-8.63 131.74-4.55 128.86-1.9 125.99 0.75 121.74 0.75L121.74 0.75ZM122.14-3.95Q124.34-3.95 125.71-6.23 127.09-8.5 127.69-11.68 128.29-14.85 128.29-17.8L128.29-17.8Q128.29-22.5 125.34-22.5L125.34-22.5Q123.14-22.5 121.76-20.25 120.39-18 119.79-14.8 119.19-11.6 119.19-8.65L119.19-8.65Q119.19-3.95 122.14-3.95L122.14-3.95ZM152.39-27.15Q155.44-27.15 157.19-24.83 158.94-22.5 158.94-18.2L158.94-18.2Q158.94-13.05 157.61-8.78 156.29-4.5 153.26-1.88 150.24 0.75 145.49 0.75L145.49 0.75Q141.53 0.75 136.94-1.2L136.94-1.2 141.99-37.05 148.09-37.7 146.19-24.05Q147.49-25.55 149.06-26.35 150.64-27.15 152.39-27.15L152.39-27.15ZM150.19-22.5Q149.03-22.5 147.78-21.63 146.53-20.75 145.49-19.3L145.49-19.3 143.44-4.45Q144.84-3.9 146.24-3.9L146.24-3.9Q148.44-3.9 149.91-6.05 151.39-8.2 152.09-11.43 152.78-14.65 152.78-18L152.78-18Q152.78-20.45 152.14-21.48 151.49-22.5 150.19-22.5L150.19-22.5ZM174.68-27.15Q178.28-27.15 180.31-25.25 182.33-23.35 182.33-20.4L182.33-20.4Q182.33-15.3 178.36-12.93 174.38-10.55 167.78-9.75L167.78-9.75 167.78-9.05Q167.78-6.4 168.71-5.23 169.63-4.05 171.38-4.05L171.38-4.05Q172.83-4.05 174.11-4.6 175.38-5.15 177.03-6.35L177.03-6.35 179.23-2.65Q175.18 0.75 170.53 0.75L170.53 0.75Q166.38 0.75 164.03-1.83 161.68-4.4 161.68-9.15L161.68-9.15Q161.68-13.75 163.08-17.88 164.48-22 167.43-24.58 170.38-27.15 174.68-27.15L174.68-27.15ZM168.18-13.8Q172.38-14.3 174.38-15.9 176.38-17.5 176.38-20.25L176.38-20.25Q176.38-22.8 174.08-22.8L174.08-22.8Q171.68-22.8 170.23-20.23 168.78-17.65 168.18-13.8L168.18-13.8ZM214.98 0L208.48 0 207.98-8.1 199.48-8.1 196.78 0 190.28 0 203.63-34.55 211.28-34.55 214.98 0ZM206.68-29.9L201.03-12.9 207.68-12.9 206.68-29.9ZM228.43-27.15Q230.83-27.15 232.83-26.3 234.83-25.45 236.33-23.9L236.33-23.9 233.58-20.55Q231.23-22.6 228.63-22.6L228.63-22.6Q227.03-22.6 226.1-21.75 225.18-20.9 225.18-19.5L225.18-19.5Q225.18-18.3 226.05-17.5 226.93-16.7 229.23-15.65L229.23-15.65Q231.93-14.45 233.25-12.8 234.58-11.15 234.58-8.45L234.58-8.45Q234.58-5.7 233.25-3.63 231.93-1.55 229.6-0.4 227.28 0.75 224.43 0.75L224.43 0.75Q219.18 0.75 215.63-3.15L215.63-3.15 218.93-6.45Q220.23-5.2 221.53-4.53 222.83-3.85 224.43-3.85L224.43-3.85Q226.38-3.85 227.4-5 228.43-6.15 228.43-7.7L228.43-7.7Q228.43-9.2 227.58-10.08 226.73-10.95 224.43-11.95L224.43-11.95Q221.63-13.15 220.38-14.73 219.13-16.3 219.13-18.85L219.13-18.85Q219.13-21.1 220.33-23 221.53-24.9 223.65-26.03 225.78-27.15 228.43-27.15L228.43-27.15ZM248.27-27.15Q250.67-27.15 252.67-26.3 254.67-25.45 256.17-23.9L256.17-23.9 253.42-20.55Q251.07-22.6 248.47-22.6L248.47-22.6Q246.87-22.6 245.95-21.75 245.02-20.9 245.02-19.5L245.02-19.5Q245.02-18.3 245.9-17.5 246.77-16.7 249.07-15.65L249.07-15.65Q251.77-14.45 253.1-12.8 254.42-11.15 254.42-8.45L254.42-8.45Q254.42-5.7 253.1-3.63 251.77-1.55 249.45-0.4 247.12 0.75 244.27 0.75L244.27 0.75Q239.02 0.75 235.47-3.15L235.47-3.15 238.77-6.45Q240.07-5.2 241.37-4.53 242.67-3.85 244.27-3.85L244.27-3.85Q246.22-3.85 247.25-5 248.27-6.15 248.27-7.7L248.27-7.7Q248.27-9.2 247.42-10.08 246.57-10.95 244.27-11.95L244.27-11.95Q241.47-13.15 240.22-14.73 238.97-16.3 238.97-18.85L238.97-18.85Q238.97-21.1 240.17-23 241.37-24.9 243.5-26.03 245.62-27.15 248.27-27.15L248.27-27.15ZM261.07-26.45L267.12-26.45 263.42 0 257.37 0 261.07-26.45ZM264.87-32.2Q263.32-32.2 262.44-33.08 261.57-33.95 261.57-35.45L261.57-35.45Q261.57-37.35 262.75-38.5 263.92-39.65 265.67-39.65L265.67-39.65Q267.22-39.65 268.1-38.78 268.97-37.9 268.97-36.4L268.97-36.4Q268.97-34.55 267.77-33.38 266.57-32.2 264.87-32.2L264.87-32.2ZM279.77-27.15Q282.17-27.15 284.17-26.3 286.17-25.45 287.67-23.9L287.67-23.9 284.92-20.55Q282.57-22.6 279.97-22.6L279.97-22.6Q278.37-22.6 277.44-21.75 276.52-20.9 276.52-19.5L276.52-19.5Q276.52-18.3 277.39-17.5 278.27-16.7 280.57-15.65L280.57-15.65Q283.27-14.45 284.59-12.8 285.92-11.15 285.92-8.45L285.92-8.45Q285.92-5.7 284.59-3.63 283.27-1.55 280.94-0.4 278.62 0.75 275.77 0.75L275.77 0.75Q270.52 0.75 266.97-3.15L266.97-3.15 270.27-6.45Q271.57-5.2 272.87-4.53 274.17-3.85 275.77-3.85L275.77-3.85Q277.72-3.85 278.74-5 279.77-6.15 279.77-7.7L279.77-7.7Q279.77-9.2 278.92-10.08 278.07-10.95 275.77-11.95L275.77-11.95Q272.97-13.15 271.72-14.73 270.47-16.3 270.47-18.85L270.47-18.85Q270.47-21.1 271.67-23 272.87-24.9 274.99-26.03 277.12-27.15 279.77-27.15L279.77-27.15ZM298.62-22L296.47-6.8Q296.42-6.55 296.42-6.1L296.42-6.1Q296.42-4.2 298.17-4.2L298.17-4.2Q298.77-4.2 299.31-4.4 299.87-4.6 300.72-5.05L300.72-5.05 302.22-1.1Q299.62 0.75 296.47 0.75L296.47 0.75Q293.56 0.75 291.97-0.9 290.37-2.55 290.37-5.45L290.37-5.45Q290.37-5.9 290.47-7L290.47-7 292.56-22 289.37-22 290.02-26.45 293.42-26.45 294.92-32.45 300.17-33.05 299.22-26.45 304.17-26.45 302.81-22 298.62-22Z" opacity="1" transform="matrix(1,0,0,1,0,0)" fill="black" class="wordmark-text-0" id="SvgjsPath1171"></path></svg></g></svg></g></svg></g></svg></g><g transform="matrix(1,0,0,1,131.28486798912854,0)"><svg viewBox="0 0 132.9502640217429 142.0713581629825" height="142.0713581629825" width="132.9502640217429"><g><svg xmlns="http://www.w3.org/2000/svg" xmlns:xlink="http://www.w3.org/1999/xlink" version="1.1" x="8" y="0" viewBox="12.956 5 74.08699999999999 90.001" enable-background="new 0 0 100 100" xml:space="preserve" width="116.9502640217429" height="142.0713581629825" class="icon-icon-0" data-fill-palette-color="accent" id="SvgjsSvg1170"><g fill="white"><path d="M80.631 37.719c0-3.499-2.847-6.346-6.346-6.346H55.172c-0.913-0.834-2.026-1.449-3.26-1.767h0.043v-3.292c2.922-0.849 5.066-3.546 5.066-6.738 0-3.871-3.15-7.021-7.021-7.021-3.871 0-7.021 3.15-7.021 7.021 0 3.192 2.144 5.889 5.066 6.738v3.292h0.043c-1.234 0.318-2.347 0.932-3.26 1.767H25.796c-3.499 0-6.346 2.847-6.346 6.346v3.64l-3.937 1.451-2.557 0.943v2.725 9.666 2.726l2.557 0.943 3.937 1.451v3.64c0 3.499 2.847 6.346 6.346 6.346h5.955v1.422 1.909c-5.652 2.117-10.043 6.988-11.366 13.123-3.068 0.875-5.333 3.81-5.333 7.297h4.946c0-1.446 1.023-2.623 2.279-2.623 1.257 0 2.28 1.177 2.28 2.623h4.946c0-3.403-2.156-6.288-5.112-7.237 1.085-3.951 3.82-7.152 7.359-8.92v10.735 3.909h3.909 28.68 3.909v-3.909V78.846c3.537 1.768 6.271 4.968 7.357 8.918-2.955 0.95-5.11 3.834-5.11 7.237h4.946c0-1.446 1.023-2.623 2.28-2.623 1.257 0 2.279 1.177 2.279 2.623h4.946c0-3.487-2.266-6.423-5.334-7.297-1.325-6.133-5.715-11.002-11.364-13.12v-1.911V71.25h6.036c3.499 0 6.346-2.847 6.346-6.346v-3.67l3.856-1.421 2.557-0.943v-2.726-9.666-2.725l-2.557-0.943-3.856-1.421V37.719zM19.45 57.097l-2.585-0.953v-9.666l2.585-0.953V57.097zM46.889 19.576c0-1.718 1.393-3.111 3.111-3.111s3.111 1.393 3.111 3.111S51.718 22.688 50 22.688 46.889 21.295 46.889 19.576zM64.34 89.578H35.66V72.672h28.68V89.578zM76.722 64.904c0 1.346-1.091 2.436-2.436 2.436h-48.49c-1.346 0-2.436-1.091-2.436-2.436V37.719c0-1.346 1.091-2.436 2.436-2.436h48.49c1.346 0 2.436 1.091 2.436 2.436V64.904zM83.135 46.478v9.666l-2.504 0.923V45.555L83.135 46.478z" fill="white"></path><path d="M29.026 54.501c0 3.916 3.186 7.101 7.102 7.101h27.745c3.916 0 7.101-3.186 7.101-7.101V41.02H29.026V54.501zM31.409 43.403H68.59v11.098c0 2.601-2.116 4.718-4.718 4.718H36.128c-2.601 0-4.718-2.116-4.718-4.718V43.403z" fill="white"></path><path d="M37.588 55.5h1.075c1.428 0 2.591-1.162 2.591-2.591v-3.33h-1.472-1.556v-2.033-1.472h-0.639c-1.428 0-2.591 1.162-2.591 2.591v4.244C34.997 54.337 36.159 55.5 37.588 55.5z" fill="white"></path><path d="M61.485 55.825h0.927c1.428 0 2.59-1.162 2.59-2.591v-3.656h-1.472H62.7v-1.975-1.501c-0.096-0.011-0.189-0.029-0.287-0.029h-0.927c-1.428 0-2.591 1.162-2.591 2.591v4.57C58.894 54.663 60.056 55.825 61.485 55.825z" fill="white"></path><path d="M61.646 7.841l-2.68 4.642c0.775 0.386 1.523 0.817 2.238 1.293l2.68-4.642L61.646 7.841z" fill="white"></path><path d="M51.043 5h-2.585v5.363c0.428-0.026 0.858-0.044 1.292-0.044 0.435 0 0.865 0.018 1.292 0.044V5z" fill="white"></path><path d="M37.855 7.841l-2.239 1.293 2.68 4.642c0.716-0.476 1.464-0.907 2.238-1.293L37.855 7.841z" fill="white"></path><path d="M54.442 76.757H37.553v8.735h16.889V76.757zM52.059 83.109H39.937v-3.968h12.122V83.109z" fill="white"></path><path d="M59.74 84.774c2.012 0 3.648-1.637 3.648-3.649 0-2.012-1.637-3.649-3.648-3.649-2.012 0-3.649 1.637-3.649 3.649C56.091 83.137 57.728 84.774 59.74 84.774zM59.74 79.86c0.697 0 1.265 0.568 1.265 1.265 0 0.698-0.568 1.265-1.265 1.265-0.698 0-1.265-0.568-1.265-1.265C58.475 80.427 59.042 79.86 59.74 79.86z" fill="white"></path></g></svg></g></svg></g><g><rect width="131.28486798912854" height="4.754217854755051" y="136.31714030822747" x="264.23513201087144" fill="white"></rect><rect width="131.28486798912854" height="4.754217854755051" y="136.31714030822747" x="0" fill="white"></rect><rect width="131.28486798912854" height="4.754217854755051" y="126.80870459871736" x="264.23513201087144" fill="white"></rect><rect width="131.28486798912854" height="4.754217854755051" y="126.80870459871736" x="0" fill="white"></rect></g></svg></g><defs><mask></mask></defs></svg><rect width="395.52" height="207.2355557631409" fill="black" stroke="none" visibility="hidden"></rect></g></mask><linearGradient x1="0.054" x2="0.941" y1="0.5" y2="0.5" id="28fa6fa5-169d-4697-8300-1dc81ac53b84"><stop stop-color="#0f3054" offset="0"></stop><stop stop-color="#3b8dcb" offset="0.498"></stop><stop stop-color="#0f3054" offset="1"></stop></linearGradient><rect width="395.52" height="207.2355557631409" fill="url(#28fa6fa5-169d-4697-8300-1dc81ac53b84)" mask="url(#715f4758-e542-40e9-85f8-94caa918aa5f)" data-fill-palette-color="accent"></rect></svg><rect width="395.52" height="207.2355557631409" fill="none" stroke="none" visibility="hidden"></rect></g></svg></g></svg>